<?xml version="1.0" encoding="utf-8"?>
<!-- Generator: Adobe Illustrator 26.5.0, SVG Export Plug-In . SVG Version: 6.00 Build 0)  -->
<svg version="1.1" xmlns="http://www.w3.org/2000/svg" xmlns:xlink="http://www.w3.org/1999/xlink" x="0px" y="0px"
	 viewBox="0 0 560.2 411.1" style="enable-background:new 0 0 560.2 411.1;" xml:space="preserve">
<style type="text/css">
	.st0{fill:#FFFFFF;}
	.st1{fill:#FEFEFE;}
	.st2{fill:#FDFDFD;}
	.st3{fill:#FCFCFC;}
	.st4{fill:#FBFBFB;}
	.st5{fill:#FAFAFA;}
	.st6{fill:#F9F9F9;}
	.st7{fill:#F8F8F9;}
	.st8{fill:#F7F7F8;}
	.st9{fill:#F6F6F7;}
	.st10{fill:#F5F6F6;}
	.st11{fill:#F4F5F5;}
	.st12{fill:#F3F4F4;}
	.st13{fill:#F2F3F3;}
	.st14{fill:#F1F2F2;}
	.st15{fill:#F0F1F1;}
	.st16{fill:#EFF0F0;}
	.st17{fill:#EEEFEF;}
	.st18{fill:#EDEEEE;}
	.st19{fill:#EDEDEE;}
	.st20{fill:#ECECED;}
	.st21{fill:#EBEBEC;}
	.st22{fill:#EAEAEB;}
	.st23{fill:#E9E9EA;}
	.st24{fill:#E8E8E9;}
	.st25{fill:#E7E7E8;}
	.st26{fill:#E6E6E7;}
	.st27{fill:#E5E5E6;}
	.st28{fill:#E4E5E5;}
	.st29{fill:#E3E4E4;}
	.st30{fill:#E2E3E3;}
	.st31{fill:#E1E2E3;}
	.st32{fill:#E0E1E2;}
	.st33{fill:#DFE0E1;}
	.st34{fill:#DEDFE0;}
	.st35{fill:#DDDEDF;}
	.st36{fill:#DCDDDE;}
	.st37{fill:#DBDCDD;}
	.st38{fill:url(#SVGID_1_);}
	.st39{fill:url(#SVGID_00000067942842956701088400000017712197910730170524_);}
</style>
<g id="Layer_1">
	<g id="XMLID_1120_">
	</g>
</g>
<g id="Layer_2">
	<g>
		<g>
			<ellipse class="st0" cx="282.4" cy="365" rx="264.7" ry="31.4"/>
			<ellipse class="st1" cx="282.4" cy="365" rx="258.8" ry="30.7"/>
			<ellipse class="st2" cx="282.4" cy="365" rx="252.9" ry="30"/>
			<path class="st3" d="M282.4,335.8c136.4,0,246.9,13.1,246.9,29.3c0,16.2-110.6,29.3-246.9,29.3C146,394.3,35.5,381.2,35.5,365
				C35.5,348.9,146,335.8,282.4,335.8z"/>
			<path class="st4" d="M282.4,336.5c133.1,0,241,12.8,241,28.6c0,15.8-107.9,28.6-241,28.6c-133.1,0-241-12.8-241-28.6
				C41.4,349.3,149.3,336.5,282.4,336.5z"/>
			<path class="st5" d="M282.4,337.2c129.8,0,235.1,12.5,235.1,27.9c0,15.4-105.2,27.9-235.1,27.9c-129.8,0-235.1-12.5-235.1-27.9
				C47.3,349.7,152.6,337.2,282.4,337.2z"/>
			<path class="st6" d="M282.4,337.9c126.6,0,229.1,12.2,229.1,27.2c0,15-102.6,27.2-229.1,27.2C155.9,392.2,53.3,380,53.3,365
				C53.3,350,155.9,337.9,282.4,337.9z"/>
			<path class="st7" d="M282.4,338.6c123.3,0,223.2,11.8,223.2,26.5c0,14.6-99.9,26.5-223.2,26.5c-123.3,0-223.2-11.8-223.2-26.5
				C59.2,350.4,159.2,338.6,282.4,338.6z"/>
			<path class="st8" d="M282.4,339.3c120,0,217.3,11.5,217.3,25.8c0,14.2-97.3,25.8-217.3,25.8c-120,0-217.3-11.5-217.3-25.8
				C65.1,350.8,162.4,339.3,282.4,339.3z"/>
			<path class="st9" d="M282.4,340c116.7,0,211.4,11.2,211.4,25.1c0,13.8-94.6,25.1-211.4,25.1c-116.7,0-211.4-11.2-211.4-25.1
				C71.1,351.2,165.7,340,282.4,340z"/>
			<path class="st10" d="M282.4,340.7c113.5,0,205.4,10.9,205.4,24.3c0,13.4-92,24.3-205.4,24.3C169,389.4,77,378.5,77,365
				C77,351.6,169,340.7,282.4,340.7z"/>
			<path class="st11" d="M282.4,341.4c110.2,0,199.5,10.6,199.5,23.6c0,13.1-89.3,23.6-199.5,23.6c-110.2,0-199.5-10.6-199.5-23.6
				C82.9,352,172.3,341.4,282.4,341.4z"/>
			<path class="st12" d="M282.4,342.1c106.9,0,193.6,10.3,193.6,22.9c0,12.7-86.7,22.9-193.6,22.9C175.5,388,88.9,377.7,88.9,365
				C88.9,352.4,175.5,342.1,282.4,342.1z"/>
			<path class="st13" d="M282.4,342.8c103.6,0,187.6,10,187.6,22.2c0,12.3-84,22.2-187.6,22.2c-103.6,0-187.6-10-187.6-22.2
				C94.8,352.8,178.8,342.8,282.4,342.8z"/>
			<path class="st14" d="M282.4,343.5c100.4,0,181.7,9.6,181.7,21.5c0,11.9-81.4,21.5-181.7,21.5c-100.4,0-181.7-9.6-181.7-21.5
				C100.7,353.2,182.1,343.5,282.4,343.5z"/>
			<path class="st15" d="M282.4,344.2c97.1,0,175.8,9.3,175.8,20.8c0,11.5-78.7,20.8-175.8,20.8c-97.1,0-175.8-9.3-175.8-20.8
				C106.7,353.5,185.4,344.2,282.4,344.2z"/>
			<path class="st16" d="M282.4,344.9c93.8,0,169.8,9,169.8,20.1c0,11.1-76,20.1-169.8,20.1c-93.8,0-169.8-9-169.8-20.1
				C112.6,353.9,188.6,344.9,282.4,344.9z"/>
			<path class="st17" d="M282.4,345.6c90.5,0,163.9,8.7,163.9,19.4c0,10.7-73.4,19.4-163.9,19.4c-90.5,0-163.9-8.7-163.9-19.4
				C118.5,354.3,191.9,345.6,282.4,345.6z"/>
			<path class="st18" d="M282.4,346.3c87.3,0,158,8.4,158,18.7c0,10.3-70.7,18.7-158,18.7c-87.3,0-158-8.4-158-18.7
				C124.4,354.7,195.2,346.3,282.4,346.3z"/>
			<path class="st19" d="M282.4,347c84,0,152.1,8.1,152.1,18c0,10-68.1,18-152.1,18c-84,0-152.1-8.1-152.1-18
				C130.4,355.1,198.5,347,282.4,347z"/>
			<path class="st20" d="M282.4,347.7c80.7,0,146.1,7.8,146.1,17.3c0,9.6-65.4,17.3-146.1,17.3c-80.7,0-146.1-7.8-146.1-17.3
				C136.3,355.5,201.7,347.7,282.4,347.7z"/>
			<path class="st21" d="M282.4,348.4c77.4,0,140.2,7.4,140.2,16.6c0,9.2-62.8,16.6-140.2,16.6c-77.4,0-140.2-7.4-140.2-16.6
				C142.2,355.9,205,348.4,282.4,348.4z"/>
			<path class="st22" d="M282.4,349.1c74.2,0,134.3,7.1,134.3,15.9c0,8.8-60.1,15.9-134.3,15.9c-74.2,0-134.3-7.1-134.3-15.9
				C148.2,356.3,208.3,349.1,282.4,349.1z"/>
			<path class="st23" d="M282.4,349.8c70.9,0,128.3,6.8,128.3,15.2c0,8.4-57.5,15.2-128.3,15.2c-70.9,0-128.3-6.8-128.3-15.2
				C154.1,356.6,211.6,349.8,282.4,349.8z"/>
			<path class="st24" d="M282.4,350.5c67.6,0,122.4,6.5,122.4,14.5c0,8-54.8,14.5-122.4,14.5c-67.6,0-122.4-6.5-122.4-14.5
				C160,357,214.8,350.5,282.4,350.5z"/>
			<path class="st25" d="M282.4,351.2c64.3,0,116.5,6.2,116.5,13.8c0,7.6-52.1,13.8-116.5,13.8c-64.3,0-116.5-6.2-116.5-13.8
				C166,357.4,218.1,351.2,282.4,351.2z"/>
			<path class="st26" d="M282.4,351.9c61.1,0,110.5,5.9,110.5,13.1c0,7.2-49.5,13.1-110.5,13.1c-61,0-110.5-5.9-110.5-13.1
				C171.9,357.8,221.4,351.9,282.4,351.9z"/>
			<path class="st27" d="M282.4,352.6c57.8,0,104.6,5.5,104.6,12.4c0,6.8-46.8,12.4-104.6,12.4c-57.8,0-104.6-5.6-104.6-12.4
				C177.8,358.2,224.7,352.6,282.4,352.6z"/>
			<path class="st28" d="M282.4,353.4c54.5,0,98.7,5.2,98.7,11.7c0,6.5-44.2,11.7-98.7,11.7c-54.5,0-98.7-5.2-98.7-11.7
				C183.7,358.6,227.9,353.4,282.4,353.4z"/>
			<path class="st29" d="M282.4,354.1c51.2,0,92.8,4.9,92.8,11c0,6.1-41.5,11-92.8,11c-51.2,0-92.8-4.9-92.8-11
				C189.7,359,231.2,354.1,282.4,354.1z"/>
			<path class="st30" d="M282.4,354.8c48,0,86.8,4.6,86.8,10.3c0,5.7-38.9,10.3-86.8,10.3c-47.9,0-86.8-4.6-86.8-10.3
				C195.6,359.4,234.5,354.8,282.4,354.8z"/>
			<path class="st31" d="M282.4,355.5c44.7,0,80.9,4.3,80.9,9.6c0,5.3-36.2,9.6-80.9,9.6c-44.7,0-80.9-4.3-80.9-9.6
				C201.5,359.7,237.8,355.5,282.4,355.5z"/>
			<path class="st32" d="M282.4,356.2c41.4,0,75,4,75,8.9c0,4.9-33.6,8.9-75,8.9c-41.4,0-75-4-75-8.9
				C207.5,360.1,241,356.2,282.4,356.2z"/>
			<path class="st33" d="M282.4,356.9c38.1,0,69,3.7,69,8.2c0,4.5-30.9,8.2-69,8.2c-38.1,0-69-3.7-69-8.2
				C213.4,360.5,244.3,356.9,282.4,356.9z"/>
			<path class="st34" d="M282.4,357.6c34.9,0,63.1,3.3,63.1,7.5c0,4.1-28.3,7.5-63.1,7.5c-34.8,0-63.1-3.4-63.1-7.5
				C219.3,360.9,247.6,357.6,282.4,357.6z"/>
			<path class="st35" d="M282.4,358.3c31.6,0,57.2,3,57.2,6.8c0,3.7-25.6,6.8-57.2,6.8c-31.6,0-57.2-3-57.2-6.8
				C225.3,361.3,250.9,358.3,282.4,358.3z"/>
			<path class="st36" d="M282.4,359c28.3,0,51.2,2.7,51.2,6.1c0,3.4-22.9,6.1-51.2,6.1c-28.3,0-51.2-2.7-51.2-6.1
				C231.2,361.7,254.1,359,282.4,359z"/>
			<path class="st37" d="M327.7,365c0,3-20.3,5.4-45.3,5.4c-25,0-45.3-2.4-45.3-5.4c0-3,20.3-5.4,45.3-5.4
				C307.5,359.7,327.7,362.1,327.7,365z"/>
		</g>
		<linearGradient id="SVGID_1_" gradientUnits="userSpaceOnUse" x1="185.787" y1="302.3236" x2="78.4653" y2="94.421">
			<stop  offset="0" style="stop-color:#6AACDB"/>
			<stop  offset="0.2002" style="stop-color:#509ED5"/>
			<stop  offset="0.5512" style="stop-color:#2888CB"/>
			<stop  offset="0.83" style="stop-color:#0F7AC5"/>
			<stop  offset="1" style="stop-color:#0675C3"/>
		</linearGradient>
		<path class="st38" d="M190.5,209.5c-7.5,2-12,9.7-10,17.3c2,7.5,9.7,12,17.3,10c7.5-2,12-9.7,10-17.3
			C205.8,211.9,198.1,207.5,190.5,209.5z M89.4,236.6c-7.5,2-12,9.8-10,17.3c2,7.5,9.8,12,17.3,10c7.5-2,12-9.7,10-17.3
			C104.7,239,96.9,234.6,89.4,236.6z M134.8,86.4c-10.2,0-20.4,1.3-30.3,4c-30.2,8.1-55.4,27.4-71,54.5
			c-15.6,27.1-19.8,58.6-11.7,88.7c13.7,51.1,60.1,86.7,112.9,86.7c10.2,0,20.4-1.3,30.3-4c62.3-16.7,99.4-81,82.7-143.2
			C234,122,187.6,86.4,134.8,86.4z M51.7,155.5c12.8-22.2,33.5-38,58.2-44.6c8.2-2.2,16.5-3.3,24.9-3.3c39.6,0,74.8,24.5,89.1,60.8
			c-46.5,9.7-90.5-10.6-97.2-35.7c-1.5-5.6-7.3-9-12.9-7.5c-4.7,1.3-7.8,5.5-7.8,10.2c0,0.9,0.1,1.8,0.4,2.7
			c3.4,12.9-2.2,29.8-15,45.2C78.4,198.7,60,211,40,217.6C36.7,196.2,40.8,174.5,51.7,155.5z M159.5,295.9
			c-8.1,2.2-16.5,3.3-24.9,3.3c-39.7,0-75.1-24.7-89.2-61.2c24.1-7.8,46.5-22.5,62.1-41.2c8.1-9.7,14-19.9,17.4-30.1
			c17.9,15.8,45.6,25.2,75.1,25.2c9.7,0,19.6-1,29.4-3.2C236.8,236.4,207.1,283.2,159.5,295.9z"/>
		
			<linearGradient id="SVGID_00000067920114544345274360000010609250584009097890_" gradientUnits="userSpaceOnUse" x1="372.284" y1="323.2301" x2="422.9376" y2="47.4172">
			<stop  offset="0" style="stop-color:#FF8A5E"/>
			<stop  offset="0.3853" style="stop-color:#FF713D"/>
			<stop  offset="1" style="stop-color:#FF4500"/>
		</linearGradient>
		<path style="fill:url(#SVGID_00000067920114544345274360000010609250584009097890_);" d="M411.8,246.5c-2,7.5,2.4,15.2,10,17.3
			c7.5,2,15.3-2.5,17.3-10c2-7.5-2.4-15.2-10-17.3C421.5,234.6,413.8,239,411.8,246.5z M327.9,209.5c-7.5-2-15.2,2.5-17.3,10
			c-2,7.5,2.5,15.2,10,17.3c7.5,2,15.2-2.5,17.3-10C339.9,219.2,335.4,211.5,327.9,209.5z M541.6,80.7c-0.8-0.4-20.2-10.7-40.1-10.7
			c-8.5,0-16.1,1.9-22.4,5.5c-13.6,7.8-20.2,22.8-23.5,35.5c-12.2-9.4-26.2-16.4-41.5-20.5c-9.9-2.7-20.1-4-30.3-4
			c-5.4,0-10.7,0.4-15.9,1.1c3.5-12.6,5.2-29-2.6-42.5c-14.3-24.7-52.5-26.6-56.8-26.8c-4-0.1-7.7,2-9.6,5.6
			c-2,3.8-19.5,37.8-5.2,62.5c5.7,9.9,15.3,16.1,24.9,20.1c-22.8,15.4-40.2,38.7-47.7,66.7c-8.1,30.2-3.9,61.7,11.7,88.8
			c15.6,27.1,40.8,46.4,71,54.5c9.9,2.7,20.1,4,30.3,4c52.8,0,99.2-35.7,112.9-86.7c7.4-27.6,4.5-56.3-7.9-81.7
			c3,0.4,6.1,0.7,9.2,0.7c8.5,0,16.1-1.9,22.4-5.5c24.7-14.3,26.6-52.5,26.8-56.8C547.3,86.3,545.1,82.6,541.6,80.7z M311.8,75.7
			c-5.7-9.9-1.3-25.9,2.7-35.8c10.4,1.5,26.7,5.7,32.3,15.6c5.7,9.9,1.3,25.9-2.7,35.8C333.6,89.8,317.5,85.6,311.8,75.7z
			 M383.8,299.2c-8.3,0-16.7-1.1-24.9-3.3c-24.7-6.6-45.4-22.5-58.2-44.6c-11-19.1-15.1-41-11.7-62.5c24.8,5.4,51.5,3.7,74.4-4.7
			c11.9-4.4,22.1-10.3,30.1-17.4c10.1,30,40.8,58.9,79.5,71.3C458.9,274.5,423.6,299.2,383.8,299.2z M478.5,217.6
			c-45.1-14.8-73-54.4-66.3-79.5c0.2-0.9,0.4-1.8,0.4-2.7c0-4.7-3.1-8.9-7.8-10.2c-5.6-1.5-11.4,1.8-12.9,7.5
			c-3.4,12.9-16.8,24.7-35.6,31.6c-18.8,6.9-40.9,8.3-61.5,4.1c10.3-26.1,31.4-46.2,57.3-55.3c1.4-0.2,2.7-0.6,4-1.3
			c8.9-2.7,18.2-4.2,27.8-4.2c8.3,0,16.7,1.1,24.9,3.3c17.6,4.7,33.1,14.1,45.2,27.1c0.7,1.2,1.6,2.2,2.7,3
			c3.8,4.5,7.2,9.3,10.2,14.5C477.7,174.5,481.7,196.2,478.5,217.6z M509.8,128.8c-3.1,1.8-7.1,2.7-11.8,2.7c-8.8,0-18.1-3-23.9-5.4
			c1.5-10.6,5.7-26.6,15.6-32.3c3.1-1.8,7.1-2.7,11.9-2.7c8.8,0,18,3,23.9,5.4C523.9,107.1,519.7,123.1,509.8,128.8z"/>
	</g>
</g>
</svg>
